<svg id="SvgjsSvg1234" width="456" height="747.5" xmlns="http://www.w3.org/2000/svg" version="1.1" xmlns:xlink="http://www.w3.org/1999/xlink" xmlns:svgjs="http://svgjs.com/svgjs"><defs id="SvgjsDefs1235"><marker id="SvgjsMarker1250" markerWidth="16" markerHeight="12" refX="16" refY="6" viewBox="0 0 16 12" orient="auto" markerUnits="userSpaceOnUse" stroke-dasharray="0,0"><path id="SvgjsPath1251" d="M0,2 L14,6 L0,11 L0,2" fill="#323232" stroke="#323232" stroke-width="2"></path></marker><marker id="SvgjsMarker1258" markerWidth="16" markerHeight="12" refX="16" refY="6" viewBox="0 0 16 12" orient="auto" markerUnits="userSpaceOnUse" stroke-dasharray="0,0"><path id="SvgjsPath1259" d="M0,2 L14,6 L0,11 L0,2" fill="#323232" stroke="#323232" stroke-width="2"></path></marker><marker id="SvgjsMarker1272" markerWidth="16" markerHeight="12" refX="16" refY="6" viewBox="0 0 16 12" orient="auto" markerUnits="userSpaceOnUse" stroke-dasharray="0,0"><path id="SvgjsPath1273" d="M0,2 L14,6 L0,11 L0,2" fill="#323232" stroke="#323232" stroke-width="2"></path></marker><marker id="SvgjsMarker1286" markerWidth="16" markerHeight="12" refX="16" refY="6" viewBox="0 0 16 12" orient="auto" markerUnits="userSpaceOnUse" stroke-dasharray="0,0"><path id="SvgjsPath1287" d="M0,2 L14,6 L0,11 L0,2" fill="#323232" stroke="#323232" stroke-width="2"></path></marker><marker id="SvgjsMarker1290" markerWidth="16" markerHeight="12" refX="16" refY="6" viewBox="0 0 16 12" orient="auto" markerUnits="userSpaceOnUse" stroke-dasharray="0,0"><path id="SvgjsPath1291" d="M0,2 L14,6 L0,11 L0,2" fill="#323232" stroke="#323232" stroke-width="2"></path></marker><marker id="SvgjsMarker1300" markerWidth="16" markerHeight="12" refX="16" refY="6" viewBox="0 0 16 12" orient="auto" markerUnits="userSpaceOnUse" stroke-dasharray="0,0"><path id="SvgjsPath1301" d="M0,2 L14,6 L0,11 L0,2" fill="#323232" stroke="#323232" stroke-width="2"></path></marker><marker id="SvgjsMarker1314" markerWidth="16" markerHeight="12" refX="16" refY="6" viewBox="0 0 16 12" orient="auto" markerUnits="userSpaceOnUse" stroke-dasharray="0,0"><path id="SvgjsPath1315" d="M0,2 L14,6 L0,11 L0,2" fill="#323232" stroke="#323232" stroke-width="2"></path></marker><marker id="SvgjsMarker1324" markerWidth="16" markerHeight="12" refX="16" refY="6" viewBox="0 0 16 12" orient="auto" markerUnits="userSpaceOnUse" stroke-dasharray="0,0"><path id="SvgjsPath1325" d="M0,2 L14,6 L0,11 L0,2" fill="#323232" stroke="#323232" stroke-width="2"></path></marker><marker id="SvgjsMarker1332" markerWidth="16" markerHeight="12" refX="16" refY="6" viewBox="0 0 16 12" orient="auto" markerUnits="userSpaceOnUse" stroke-dasharray="0,0"><path id="SvgjsPath1333" d="M0,2 L14,6 L0,11 L0,2" fill="#323232" stroke="#323232" stroke-width="2"></path></marker><marker id="SvgjsMarker1336" markerWidth="16" markerHeight="12" refX="16" refY="6" viewBox="0 0 16 12" orient="auto" markerUnits="userSpaceOnUse" stroke-dasharray="0,0"><path id="SvgjsPath1337" d="M0,2 L14,6 L0,11 L0,2" fill="#323232" stroke="#323232" stroke-width="2"></path></marker></defs><g id="SvgjsG1236" transform="translate(55,25)"><path id="SvgjsPath1237" d="M 0 35.5L 79.5 0L 159 35.5L 79.5 71Z" stroke="rgba(50,50,50,1)" stroke-width="2" fill-opacity="1" fill="#ffffff"></path><g id="SvgjsG1238"><text id="SvgjsText1239" font-family="黑体" text-anchor="middle" font-size="13px" width="139px" fill="#323232" font-weight="400" align="middle" lineHeight="125%" anchor="middle" family="黑体" size="13px" weight="400" font-style="" opacity="1" y="26.23" transform="rotate(0)"><tspan id="SvgjsTspan1240" dy="16" x="79.5"><tspan id="SvgjsTspan1241" style="text-decoration:;">low&lt;high</tspan></tspan></text></g></g><g id="SvgjsG1242" transform="translate(55,143)"><path id="SvgjsPath1243" d="M 0 35.5L 79.5 0L 159 35.5L 79.5 71Z" stroke="rgba(50,50,50,1)" stroke-width="2" fill-opacity="1" fill="#ffffff"></path><g id="SvgjsG1244"><text id="SvgjsText1245" font-family="微软雅黑" text-anchor="middle" font-size="13px" width="139px" fill="#323232" font-weight="400" align="middle" lineHeight="125%" anchor="middle" family="微软雅黑" size="13px" weight="400" font-style="" opacity="1" y="26.23" transform="rotate(0)"><tspan id="SvgjsTspan1246" dy="16" x="79.5"><tspan id="SvgjsTspan1247" style="text-decoration:;">A[high]&gt;=p</tspan></tspan></text></g></g><g id="SvgjsG1248"><path id="SvgjsPath1249" d="M134.5 96L134.5 119.5L134.5 119.5L134.5 143" stroke="#323232" stroke-width="2" fill="none" marker-end="url(#SvgjsMarker1250)"></path><rect id="SvgjsRect1252" width="7" height="16" x="131" y="111.5" fill="#ffffff"></rect><text id="SvgjsText1253" font-family="微软雅黑" text-anchor="middle" font-size="13px" width="7px" fill="#323232" font-weight="400" align="top" lineHeight="16px" anchor="middle" family="微软雅黑" size="13px" weight="400" font-style="" opacity="1" y="109.875" transform="rotate(0)"><tspan id="SvgjsTspan1254" dy="16" x="134.5"><tspan id="SvgjsTspan1255" style="text-decoration:;">Y</tspan></tspan></text></g><g id="SvgjsG1256"><path id="SvgjsPath1257" d="M134.5 214L134.5 234L134.5 234L134.5 254" stroke="#323232" stroke-width="2" fill="none" marker-end="url(#SvgjsMarker1258)"></path><rect id="SvgjsRect1260" width="7" height="16" x="131" y="226" fill="#ffffff"></rect><text id="SvgjsText1261" font-family="微软雅黑" text-anchor="middle" font-size="13px" width="7px" fill="#323232" font-weight="400" align="top" lineHeight="16px" anchor="middle" family="微软雅黑" size="13px" weight="400" font-style="" opacity="1" y="224.375" transform="rotate(0)"><tspan id="SvgjsTspan1262" dy="16" x="134.5"><tspan id="SvgjsTspan1263" style="text-decoration:;">Y</tspan></tspan></text></g><g id="SvgjsG1264" transform="translate(55,254)"><path id="SvgjsPath1265" d="M 0 35.5L 79.5 0L 159 35.5L 79.5 71Z" stroke="rgba(50,50,50,1)" stroke-width="2" fill-opacity="1" fill="#ffffff"></path><g id="SvgjsG1266"><text id="SvgjsText1267" font-family="微软雅黑" text-anchor="middle" font-size="13px" width="139px" fill="#323232" font-weight="400" align="middle" lineHeight="125%" anchor="middle" family="微软雅黑" size="13px" weight="400" font-style="" opacity="1" y="26.23" transform="rotate(0)"><tspan id="SvgjsTspan1268" dy="16" x="79.5"><tspan id="SvgjsTspan1269" style="text-decoration:;">high--</tspan></tspan></text></g></g><g id="SvgjsG1270"><path id="SvgjsPath1271" d="M214 178.5L244 178.5L244 374L214 374" stroke="#323232" stroke-width="2" fill="none" marker-end="url(#SvgjsMarker1272)"></path><rect id="SvgjsRect1274" width="9" height="16" x="239.5" y="268.25" fill="#ffffff"></rect><text id="SvgjsText1275" font-family="微软雅黑" text-anchor="middle" font-size="13px" width="9px" fill="#323232" font-weight="400" align="top" lineHeight="16px" anchor="middle" family="微软雅黑" size="13px" weight="400" font-style="" opacity="1" y="266.625" transform="rotate(0)"><tspan id="SvgjsTspan1276" dy="16" x="244"><tspan id="SvgjsTspan1277" style="text-decoration:;">N</tspan></tspan></text></g><g id="SvgjsG1278" transform="translate(55,348)"><path id="SvgjsPath1279" d="M 0 0L 159 0L 159 52L 0 52Z" stroke="rgba(50,50,50,1)" stroke-width="2" fill-opacity="1" fill="#ffffff"></path><g id="SvgjsG1280"><text id="SvgjsText1281" font-family="微软雅黑" text-anchor="middle" font-size="13px" width="139px" fill="#323232" font-weight="400" align="middle" lineHeight="125%" anchor="middle" family="微软雅黑" size="13px" weight="400" font-style="" opacity="1" y="16.375" transform="rotate(0)"><tspan id="SvgjsTspan1282" dy="16" x="79.5"><tspan id="SvgjsTspan1283" style="text-decoration:;">A[low]=A[high]</tspan></tspan></text></g></g><g id="SvgjsG1284"><path id="SvgjsPath1285" d="M134.5 325L134.5 336.5L134.5 336.5L134.5 348" stroke="#323232" stroke-width="2" fill="none" marker-end="url(#SvgjsMarker1286)"></path></g><g id="SvgjsG1288"><path id="SvgjsPath1289" d="M134.5 400L134.5 412L134.5 412L134.5 424" stroke="#323232" stroke-width="2" fill="none" marker-end="url(#SvgjsMarker1290)"></path></g><g id="SvgjsG1292" transform="translate(55,424)"><path id="SvgjsPath1293" d="M 0 35.5L 79.5 0L 159 35.5L 79.5 71Z" stroke="rgba(50,50,50,1)" stroke-width="2" fill-opacity="1" fill="#ffffff"></path><g id="SvgjsG1294"><text id="SvgjsText1295" font-family="微软雅黑" text-anchor="middle" font-size="13px" width="139px" fill="#323232" font-weight="400" align="middle" lineHeight="125%" anchor="middle" family="微软雅黑" size="13px" weight="400" font-style="" opacity="1" y="26.23" transform="rotate(0)"><tspan id="SvgjsTspan1296" dy="16" x="79.5"><tspan id="SvgjsTspan1297" style="text-decoration:;">A[low]&lt;=p</tspan></tspan></text></g></g><g id="SvgjsG1298"><path id="SvgjsPath1299" d="M134.5 495L134.5 522L134.5 522L134.5 549" stroke="#323232" stroke-width="2" fill="none" marker-end="url(#SvgjsMarker1300)"></path><rect id="SvgjsRect1302" width="7" height="16" x="131" y="514" fill="#ffffff"></rect><text id="SvgjsText1303" font-family="微软雅黑" text-anchor="middle" font-size="13px" width="7px" fill="#323232" font-weight="400" align="top" lineHeight="16px" anchor="middle" family="微软雅黑" size="13px" weight="400" font-style="" opacity="1" y="512.375" transform="rotate(0)"><tspan id="SvgjsTspan1304" dy="16" x="134.5"><tspan id="SvgjsTspan1305" style="text-decoration:;">Y</tspan></tspan></text></g><g id="SvgjsG1306" transform="translate(55,549)"><path id="SvgjsPath1307" d="M 0 35.5L 79.5 0L 159 35.5L 79.5 71Z" stroke="rgba(50,50,50,1)" stroke-width="2" fill-opacity="1" fill="#ffffff"></path><g id="SvgjsG1308"><text id="SvgjsText1309" font-family="微软雅黑" text-anchor="middle" font-size="13px" width="139px" fill="#323232" font-weight="400" align="middle" lineHeight="125%" anchor="middle" family="微软雅黑" size="13px" weight="400" font-style="" opacity="1" y="26.23" transform="rotate(0)"><tspan id="SvgjsTspan1310" dy="16" x="79.5"><tspan id="SvgjsTspan1311" style="text-decoration:;">low++</tspan></tspan></text></g></g><g id="SvgjsG1312"><path id="SvgjsPath1313" d="M134.5 620L134.5 630L134.5 630L134.5 640" stroke="#323232" stroke-width="2" fill="none" marker-end="url(#SvgjsMarker1314)"></path></g><g id="SvgjsG1316" transform="translate(55,640)"><path id="SvgjsPath1317" d="M 0 0L 159 0L 159 52L 0 52Z" stroke="rgba(50,50,50,1)" stroke-width="2" fill-opacity="1" fill="#ffffff"></path><g id="SvgjsG1318"><text id="SvgjsText1319" font-family="微软雅黑" text-anchor="middle" font-size="13px" width="139px" fill="#323232" font-weight="400" align="middle" lineHeight="125%" anchor="middle" family="微软雅黑" size="13px" weight="400" font-style="" opacity="1" y="16.375" transform="rotate(0)"><tspan id="SvgjsTspan1320" dy="16" x="79.5"><tspan id="SvgjsTspan1321" style="text-decoration:;">A[high]=A[low]</tspan></tspan></text></g></g><g id="SvgjsG1322"><path id="SvgjsPath1323" d="M214 459.5L244 459.5L244 666L214 666" stroke="#323232" stroke-width="2" fill="none" marker-end="url(#SvgjsMarker1324)"></path><rect id="SvgjsRect1326" width="9" height="16" x="239.5" y="554.75" fill="#ffffff"></rect><text id="SvgjsText1327" font-family="微软雅黑" text-anchor="middle" font-size="13px" width="9px" fill="#323232" font-weight="400" align="top" lineHeight="16px" anchor="middle" family="微软雅黑" size="13px" weight="400" font-style="" opacity="1" y="553.125" transform="rotate(0)"><tspan id="SvgjsTspan1328" dy="16" x="244"><tspan id="SvgjsTspan1329" style="text-decoration:;">N</tspan></tspan></text></g><g id="SvgjsG1330"><path id="SvgjsPath1331" d="M134.5 692L134.5 722L25 722L25 60.5L55 60.5" stroke="#323232" stroke-width="2" fill="none" marker-end="url(#SvgjsMarker1332)"></path></g><g id="SvgjsG1334"><path id="SvgjsPath1335" d="M214 60.5L243 60.5L243 60.5L272 60.5" stroke="#323232" stroke-width="2" fill="none" marker-end="url(#SvgjsMarker1336)"></path><rect id="SvgjsRect1338" width="9" height="16" x="238.5" y="52.5" fill="#ffffff"></rect><text id="SvgjsText1339" font-family="微软雅黑" text-anchor="middle" font-size="13px" width="9px" fill="#323232" font-weight="400" align="top" lineHeight="16px" anchor="middle" family="微软雅黑" size="13px" weight="400" font-style="" opacity="1" y="50.875" transform="rotate(0)"><tspan id="SvgjsTspan1340" dy="16" x="243"><tspan id="SvgjsTspan1341" style="text-decoration:;">N</tspan></tspan></text></g><g id="SvgjsG1342" transform="translate(272,34.5)"><path id="SvgjsPath1343" d="M 0 0L 159 0L 159 52L 0 52Z" stroke="rgba(50,50,50,1)" stroke-width="2" fill-opacity="1" fill="#ffffff"></path><g id="SvgjsG1344"><text id="SvgjsText1345" font-family="微软雅黑" text-anchor="middle" font-size="13px" width="139px" fill="#323232" font-weight="400" align="middle" lineHeight="125%" anchor="middle" family="微软雅黑" size="13px" weight="400" font-style="" opacity="1" y="7.875" transform="rotate(0)"><tspan id="SvgjsTspan1346" dy="16" x="79.5"><tspan id="SvgjsTspan1347" style="text-decoration:;">A[low]=p;</tspan></tspan><tspan id="SvgjsTspan1348" dy="16" x="79.5"><tspan id="SvgjsTspan1349" style="text-decoration:;">reutrn low;</tspan></tspan></text></g></g></svg>