<svg xmlns="http://www.w3.org/2000/svg" xmlns:xlink="http://www.w3.org/1999/xlink" viewBox="0 0 300.52 165.64"><defs><style>.cls-1{fill:#635555;}.cls-2{fill:#ed778e;}.cls-3{clip-path:url(#clip-path);}.cls-4{fill:#2a120d;}.cls-5{clip-path:url(#clip-path-2);}.cls-6{fill:#c32421;}</style><clipPath id="clip-path"><path id="_剪贴路径_" data-name="&lt;剪贴路径&gt;" class="cls-1" d="M155.8,3.94C140.89,19.37,40.21,64.87,36.21,66.87s.09,7.22,2.66,10C40,78.11,73.5,88.26,100.36,97.59c0,6.39.75,34.18.75,39.52,0,12.12,24.21,25.56,68,25.56,44,0,67.56-12.63,67.56-24.8,0-18.68.67-46.55.67-51.22C242,84,272.76,65.6,290.78,53.74c5-3.28,5.15-7.53,5.09-11.39-.08-5-117-35.46-125.24-38.84C164-.3,161.67-2.13,155.8,3.94Z"/></clipPath><clipPath id="clip-path-2"><path id="_剪贴路径_2" data-name="&lt;剪贴路径&gt;" class="cls-2" d="M169.12,52.4c-3.69.92-10.59,1.53-24.06,8-42.32,20.16-46,42.48-77.95,53.84a5.1,5.1,0,0,1-2.48,2,4.28,4.28,0,0,1-2.67-.29c-20,9.34-47.73-2.37-56.34-2.87-3.77-3.49-4-5.83.62-6.82-13.52-5-.28-9.9,3.31-10.19-.79-2,5.87-5.83,8.18-5.43,4.94.85,7.2,7.61,12.6,8.36,13.23,1.82,27.53,5.94,31.31,10.9a3.3,3.3,0,0,1,2-1.55,4.83,4.83,0,0,1,2.74.07c28.92-9.94,29.57-31.7,75.16-51.7,9.81-4.3,19.92-5.53,22.33-5.44C168.22,51.33,169.12,52.4,169.12,52.4Z"/></clipPath></defs><title>资源 15</title><g id="图层_2" data-name="图层 2"><g id="图层_1-2" data-name="图层 1"><path id="_剪贴路径_3" data-name="&lt;剪贴路径&gt;" class="cls-1" d="M155.8,3.94C140.89,19.37,40.21,64.87,36.21,66.87s.09,7.22,2.66,10C40,78.11,73.5,88.26,100.36,97.59c0,6.39.75,34.18.75,39.52,0,12.12,24.21,25.56,68,25.56,44,0,67.56-12.63,67.56-24.8,0-18.68.67-46.55.67-51.22C242,84,272.76,65.6,290.78,53.74c5-3.28,5.15-7.53,5.09-11.39-.08-5-117-35.46-125.24-38.84C164-.3,161.67-2.13,155.8,3.94Z"/><g class="cls-3"><path class="cls-4" d="M29.56,69.78c.46.12,11.25-6,12.39-5.6-3.12,2.41-4.67,4.5-1.61,5.51C54.18,74.23,76.87,79.75,103,87.21c1,.27,61.77-33.94,62.84-35.19.49-.57-1.86-5-1.11-4.83.23-.18,4.75,3.13,6.2,2.06a19.74,19.74,0,0,1,5.18-3c-.42.3-3.27,2.57-2.28,5.14,1.28,3.33,7,6.17,6.65,7.24a114.72,114.72,0,0,1-11.39-4.51c-12,8.32-56.77,35.82-56.17,36,29,8.22,58.14,20.46,61.85,20.46,8,0,117.44-61.69,124.11-71.69,1.06-1.58,2.61.86.71,4.59-7.88,15.4-40.27,64.74-54.81,82.48-4.18,5.11-10-7.36-15.61-9.82s-17.2-.74-26.65,8.39c-13.19,12.77-18.81,26.82-23.45,41.08-10.38,0-55.8-3.95-67.1-7.5-8.86-2.79-23.56-26.81-23.56-26.81Z"/></g><path id="_剪贴路径_4" data-name="&lt;剪贴路径&gt;" class="cls-2" d="M169.12,52.4c-3.69.92-10.59,1.53-24.06,8-42.32,20.16-46,42.48-77.95,53.84a5.1,5.1,0,0,1-2.48,2,4.28,4.28,0,0,1-2.67-.29c-20,9.34-47.73-2.37-56.34-2.87-3.77-3.49-4-5.83.62-6.82-13.52-5-.28-9.9,3.31-10.19-.79-2,5.87-5.83,8.18-5.43,4.94.85,7.2,7.61,12.6,8.36,13.23,1.82,27.53,5.94,31.31,10.9a3.3,3.3,0,0,1,2-1.55,4.83,4.83,0,0,1,2.74.07c28.92-9.94,29.57-31.7,75.16-51.7,9.81-4.3,19.92-5.53,22.33-5.44C168.22,51.33,169.12,52.4,169.12,52.4Z"/><g class="cls-5"><path class="cls-6" d="M169.12,52.4c-5.81-.34-16.15,1.79-26.93,6.93-45.06,21.49-41.65,40-75,53.17a3.48,3.48,0,0,1-3,1.71c-1.45-.09-2-1.83-1.92-2.89a10.8,10.8,0,0,0,.05-2.65c-.49-3.36-4.08-3.12-2.31-1.26a3.34,3.34,0,0,1,1,3,15.29,15.29,0,0,0-6.17-1.87c2.31.39,5.23,2.16,5.8,3.07-.34,1.49-1,2.18-3,2.54-17.69,3.22-36.7.06-46.56-3.83-2.47.32-8.53-.63-9.31-1.57s-.55,6.65.39,9.31,30.64,9.68,38.19,12,29.54,1,43.73-12,55.11-50.76,64.76-54.11,23.51-10.5,23.51-10.5Z"/><path class="cls-6" d="M9.23,93.22c1.73,1.57,7.9,5.13,9.52,6.31-1.81-.44-9.2-2.69-11.49-3.64C7.07,94.83,9.23,93.22,9.23,93.22Z"/><path class="cls-6" d="M.29,99.12c1.15,3.85,7.92,7.12,9.89,8-2.47-.6-7.85.5-10.13-.44C-.15,105.66.29,99.12.29,99.12Z"/></g></g></g></svg>